<?xml version="1.0" encoding="utf-8"?>
<!-- Generator: Adobe Illustrator 21.0.0, SVG Export Plug-In . SVG Version: 6.00 Build 0)  -->
<svg version="1.1" id="Layer_1" xmlns="http://www.w3.org/2000/svg" xmlns:xlink="http://www.w3.org/1999/xlink" x="0px" y="0px"
	 viewBox="0 0 24 18" style="enable-background:new 0 0 24 18;" xml:space="preserve">
<style type="text/css">
	.st0{fill:#173B67;}
	.st1{fill:none;}
</style>
<circle class="st0" cx="12" cy="10" r="3.2"/>
<path class="st0" d="M9,0L7.2,2H4C2.9,2,2,2.9,2,4v12c0,1.1,0.9,2,2,2h16c1.1,0,2-0.9,2-2V4c0-1.1-0.9-2-2-2h-3.2L15,0H9z M12,15
	c-2.8,0-5-2.2-5-5s2.2-5,5-5s5,2.2,5,5S14.8,15,12,15z"/>
<path class="st1" d="M0-2h24v24H0V-2z"/>
</svg>
