<svg id="Layer_1" data-name="Layer 1" xmlns="http://www.w3.org/2000/svg" width="1128" height="193" viewBox="0 0 1128 193"><defs><style>.cls-1{fill:#2c6fd1;}</style></defs><title>Artboard 1</title><path class="cls-1" d="M141.32,130.16q0,6.59-3.78,10.36t-10.36,3.78a13.86,13.86,0,0,1-9.87-3.78q-4-3.78-4-10.36v-.72a69,69,0,0,1-7.92,6.7,54.09,54.09,0,0,1-10,5.72,66.39,66.39,0,0,1-11.57,3.9,51.77,51.77,0,0,1-12.19,1.47,72.75,72.75,0,0,1-28.75-5.6A68.76,68.76,0,0,1,5.35,103.72,72.68,72.68,0,0,1,0,75.82a72.75,72.75,0,0,1,5.35-27.9,70,70,0,0,1,15-22.78A72.06,72.06,0,0,1,43.13,9.67a70.63,70.63,0,0,1,28.5-5.73A59.25,59.25,0,0,1,95.76,8.57,51.41,51.41,0,0,1,113.3,21a13.22,13.22,0,0,1,4-10.1,13.86,13.86,0,0,1,9.87-3.78q6.59,0,10.36,3.78T141.32,21ZM71.63,32a42.71,42.71,0,0,0-30.94,12.8,44.7,44.7,0,0,0-9.26,14A43.08,43.08,0,0,0,28,75.82a42.23,42.23,0,0,0,3.41,16.93,43.13,43.13,0,0,0,23,23,42.88,42.88,0,0,0,17.18,3.42,40.6,40.6,0,0,0,29.61-12.67,43.52,43.52,0,0,0,8.65-13.77,45.16,45.16,0,0,0,3.17-16.93,46.08,46.08,0,0,0-3.17-17.05,44.54,44.54,0,0,0-8.65-14,39.39,39.39,0,0,0-13.16-9.39A40.09,40.09,0,0,0,71.63,32Z"/><path class="cls-1" d="M231.72,3.94a75.1,75.1,0,0,1,29.12,5.73,57.69,57.69,0,0,1,22.78,16.69A14.26,14.26,0,0,1,286,31a15.14,15.14,0,0,1,.73,4.38,14,14,0,0,1-4.38,10.24,13.76,13.76,0,0,1-10,4.38,12.81,12.81,0,0,1-9.26-4.14,50.6,50.6,0,0,0-14.38-10.11A39.6,39.6,0,0,0,231.72,32a42.71,42.71,0,0,0-30.94,12.8,44.7,44.7,0,0,0-9.26,14,43.08,43.08,0,0,0-3.41,17.05,42.23,42.23,0,0,0,3.41,16.93,43.13,43.13,0,0,0,23,23,42.88,42.88,0,0,0,17.18,3.42,44.61,44.61,0,0,0,17.05-3.29,38.46,38.46,0,0,0,13.89-9.63,13.74,13.74,0,0,1,4.75-3.29,14.45,14.45,0,0,1,5-.85,15,15,0,0,1,10.23,4.14,13,13,0,0,1,4.63,10q0,4.88-4.38,9.75a69,69,0,0,1-23.27,15.71,72.52,72.52,0,0,1-27.9,5.48,70,70,0,0,1-27.9-5.6A73.23,73.23,0,0,1,181,126.39a70.8,70.8,0,0,1-15.35-22.66,69.82,69.82,0,0,1-5.6-27.9,69.88,69.88,0,0,1,5.6-27.9A72.43,72.43,0,0,1,181,25.14,73.89,73.89,0,0,1,203.82,9.67,68.57,68.57,0,0,1,231.72,3.94Z"/><path class="cls-1" d="M318.22,7.11q11.93,0,14.13,12.18a45.72,45.72,0,0,1,15.6-11.2,50.11,50.11,0,0,1,20.71-4.14,58.44,58.44,0,0,1,23.88,4.75,54.18,54.18,0,0,1,18.27,13,57.14,57.14,0,0,1,11.57,19.62,72.74,72.74,0,0,1,4,24.48V130.4q0,6.57-3.78,10.23c-2.53,2.44-5.89,3.66-10.11,3.66a14,14,0,0,1-10-3.66q-3.9-3.66-3.9-10.23V65.83a39.72,39.72,0,0,0-2.19-13.28,33.42,33.42,0,0,0-6.22-10.85,28.84,28.84,0,0,0-9.87-7.31,31.26,31.26,0,0,0-13.16-2.68,32.86,32.86,0,0,0-23.88,9.87,30.46,30.46,0,0,0-6.7,10.72,38.39,38.39,0,0,0-2.31,13.52V130.4q0,6.57-3.78,10.23t-10.36,3.66a14.12,14.12,0,0,1-9.87-3.66q-4-3.66-4-10.23V19.29a11.57,11.57,0,0,1,3.53-8.89A11.9,11.9,0,0,1,318.22,7.11Z"/><path class="cls-1" d="M517.29,3.94a69.38,69.38,0,0,1,27.65,5.6,75.44,75.44,0,0,1,22.78,15A71.17,71.17,0,0,1,583.2,46.47a62.94,62.94,0,0,1,5.72,26.43q0,7.08-3.65,10.72T575,87.27H476.11a33,33,0,0,0,5.12,12.67,40.54,40.54,0,0,0,9.63,10.11,47.54,47.54,0,0,0,12.54,6.7,41,41,0,0,0,13.89,2.44A42.42,42.42,0,0,0,533.86,116a41.47,41.47,0,0,0,13.4-9,21.06,21.06,0,0,1,5.36-3.54,13.55,13.55,0,0,1,5.6-1.34,12.19,12.19,0,0,1,9.38,4.14,14,14,0,0,1,3.78,9.75,21.22,21.22,0,0,1-.73,5.6,10.86,10.86,0,0,1-2.92,4.88,59.53,59.53,0,0,1-22.42,15.6,75.37,75.37,0,0,1-28,5.12,70,70,0,0,1-27.9-5.6,73.23,73.23,0,0,1-22.78-15.23,70.8,70.8,0,0,1-15.35-22.66,69.82,69.82,0,0,1-5.6-27.9,69.88,69.88,0,0,1,5.6-27.9A72.43,72.43,0,0,1,466.6,25.14,73.89,73.89,0,0,1,489.39,9.67,68.57,68.57,0,0,1,517.29,3.94Zm0,28A41.25,41.25,0,0,0,503.4,34.4a42.35,42.35,0,0,0-12.3,6.82,44.91,44.91,0,0,0-9.38,10.23,36.69,36.69,0,0,0-5.36,12.67h81.88a33.24,33.24,0,0,0-5.12-12.67A44.17,44.17,0,0,0,531.18,34.4,41.25,41.25,0,0,0,517.29,32Z"/><path class="cls-1" d="M645.45,58.52a128.32,128.32,0,0,1,15.71,7.31A55.65,55.65,0,0,1,672,73.63a33,33,0,0,1,8,12.79,55.84,55.84,0,0,1,2.43,17.67,40.63,40.63,0,0,1-11.32,28.14A42.53,42.53,0,0,1,658,141.49,41.19,41.19,0,0,1,640.58,145a51.18,51.18,0,0,1-16.69-2.81A46.72,46.72,0,0,1,610.12,135a27,27,0,0,1-5.72-6.09,13.57,13.57,0,0,1-2.32-7.8,14,14,0,0,1,3.54-9.13,10.82,10.82,0,0,1,8.65-4.27,18.16,18.16,0,0,1,9.26,2.92,42.23,42.23,0,0,0,7.8,3.66,27.69,27.69,0,0,0,9.25,1.46q7.32,0,10.73-3.77a13.51,13.51,0,0,0,3.41-9.39q0-5.35-1.83-8.16a17.86,17.86,0,0,0-4.5-4.75,43,43,0,0,0-12.3-6.34,69.08,69.08,0,0,1-13-5.85,38,38,0,0,1-13.4-12.42q-4.88-7.55-4.87-19.49a41.91,41.91,0,0,1,2.92-16,35.67,35.67,0,0,1,8.16-12.3,36.93,36.93,0,0,1,12.3-7.92,42,42,0,0,1,15.6-2.81,46.81,46.81,0,0,1,16.82,3.17,26.42,26.42,0,0,1,12.67,9.5,17.8,17.8,0,0,1,2.92,10.48,13.74,13.74,0,0,1-3.05,8.89q-3,3.78-9.38,3.78a14.52,14.52,0,0,1-5.23-1.09,9.39,9.39,0,0,1-4.26-3.05q-4.15-5.35-11.95-5.35a9.74,9.74,0,0,0-6.94,2.92q-3,2.91-3,8.53c0,3.41.76,6,2.31,7.91S639.76,56.25,645.45,58.52Z"/><path class="cls-1" d="M976.6,130.16q0,6.59-3.78,10.36t-10.36,3.78a13.86,13.86,0,0,1-9.87-3.78q-4-3.78-4-10.36v-.72a69,69,0,0,1-7.92,6.7,54.09,54.09,0,0,1-10,5.72,66.39,66.39,0,0,1-11.57,3.9,51.77,51.77,0,0,1-12.19,1.47,72.75,72.75,0,0,1-28.75-5.6,68.76,68.76,0,0,1-37.53-37.89,72.68,72.68,0,0,1-5.35-27.9,72.75,72.75,0,0,1,5.35-27.9,70,70,0,0,1,15-22.78A72.06,72.06,0,0,1,878.4,9.67a70.63,70.63,0,0,1,28.5-5.73A59.25,59.25,0,0,1,931,8.57,51.41,51.41,0,0,1,948.58,21a13.22,13.22,0,0,1,4-10.1,13.86,13.86,0,0,1,9.87-3.78q6.59,0,10.36,3.78T976.6,21ZM906.9,32A42.71,42.71,0,0,0,876,44.76a44.7,44.7,0,0,0-9.26,14,43.08,43.08,0,0,0-3.41,17.05,42.23,42.23,0,0,0,3.41,16.93,43.13,43.13,0,0,0,23,23,42.88,42.88,0,0,0,17.18,3.42,40.6,40.6,0,0,0,29.61-12.67,43.52,43.52,0,0,0,8.65-13.77,45.16,45.16,0,0,0,3.17-16.93,46.08,46.08,0,0,0-3.17-17.05,44.54,44.54,0,0,0-8.65-14,39.39,39.39,0,0,0-13.16-9.39A40.09,40.09,0,0,0,906.9,32Z"/><path class="cls-1" d="M1011.92,7.11q11.93,0,14.13,12.18a45.72,45.72,0,0,1,15.6-11.2,50.11,50.11,0,0,1,20.71-4.14,58.44,58.44,0,0,1,23.88,4.75,54.18,54.18,0,0,1,18.27,13,57.14,57.14,0,0,1,11.57,19.62,72.74,72.74,0,0,1,4,24.48V130.4q0,6.57-3.78,10.23c-2.53,2.44-5.89,3.66-10.11,3.66a14,14,0,0,1-10-3.66q-3.9-3.66-3.9-10.23V65.83a39.72,39.72,0,0,0-2.19-13.28,33.42,33.42,0,0,0-6.22-10.85,28.84,28.84,0,0,0-9.87-7.31,31.26,31.26,0,0,0-13.16-2.68A32.86,32.86,0,0,0,1037,41.59a30.46,30.46,0,0,0-6.7,10.72A38.39,38.39,0,0,0,1028,65.83V130.4q0,6.57-3.78,10.23t-10.36,3.66a14.12,14.12,0,0,1-9.87-3.66q-4-3.66-4-10.23V19.29a11.57,11.57,0,0,1,3.53-8.89A11.9,11.9,0,0,1,1011.92,7.11Z"/><rect class="cls-1" x="802.62" y="117.69" width="20.31" height="81.22" rx="10" ry="10" transform="translate(126.12 621.08) rotate(-45)"/><path class="cls-1" d="M723.78,14.07a75.11,75.11,0,0,1,28.08-9.6,57.62,57.62,0,0,1,28.08,3.06,14.24,14.24,0,0,1,4.42,2.79,15.45,15.45,0,0,1,2.83,3.43,14,14,0,0,1,1.32,11.06A13.77,13.77,0,0,1,782,33.6a12.8,12.8,0,0,1-10.09,1,50.75,50.75,0,0,0-17.51-1.57,39.68,39.68,0,0,0-16.66,5.26,42.78,42.78,0,0,0-20.4,26.55,44.78,44.78,0,0,0-1,16.76A43.18,43.18,0,0,0,722,98.12a42.26,42.26,0,0,0,11.42,13,43.18,43.18,0,0,0,31.45,8.43,42.91,42.91,0,0,0,16.58-5.63,44.63,44.63,0,0,0,13.13-11.38,38.49,38.49,0,0,0,7.21-15.28A13.6,13.6,0,0,1,804.22,82a14.36,14.36,0,0,1,3.9-3.24,15,15,0,0,1,10.93-1.53,13,13,0,0,1,9,6.34q2.44,4.22,1.07,10.63a69,69,0,0,1-12.29,25.25,72.45,72.45,0,0,1-21.42,18.7,69.88,69.88,0,0,1-27,9.09,73.17,73.17,0,0,1-27.34-1.8,70.73,70.73,0,0,1-24.62-12,69.82,69.82,0,0,1-18.8-21.36,69.84,69.84,0,0,1-9.1-27,72.21,72.21,0,0,1,1.9-27.4,74,74,0,0,1,12-24.79A68.64,68.64,0,0,1,723.78,14.07Z"/></svg>