<?xml version="1.0" encoding="utf-8"?>
<!-- Generator: Adobe Illustrator 21.0.0, SVG Export Plug-In . SVG Version: 6.00 Build 0)  -->
<svg version="1.1" baseProfile="tiny" id="Layer_1" xmlns="http://www.w3.org/2000/svg" xmlns:xlink="http://www.w3.org/1999/xlink"
	 x="0px" y="0px" viewBox="0 0 1128 193" xml:space="preserve">
<g>
	<path fill="#FFFFFF" d="M141.3,130.2c0,4.4-1.3,7.8-3.8,10.4s-6,3.8-10.4,3.8c-3.9,0-7.2-1.3-9.9-3.8c-2.7-2.5-4-6-4-10.4v-0.7
		c-2.3,2.3-4.9,4.5-7.9,6.7c-3,2.2-6.3,4.1-10,5.7c-3.6,1.6-7.5,2.9-11.6,3.9c-4.1,1-8.1,1.5-12.2,1.5c-10.4,0-20-1.9-28.8-5.6
		c-8.8-3.7-16.3-8.8-22.7-15.2c-6.3-6.4-11.3-14-14.9-22.7C1.8,95,0,85.7,0,75.8c0-9.9,1.8-19.2,5.4-27.9c3.6-8.7,8.6-16.3,15-22.8
		c6.4-6.5,14-11.6,22.8-15.5c8.8-3.8,18.3-5.7,28.5-5.7c9.1,0,17.1,1.5,24.1,4.6c7,3.1,12.8,7.2,17.5,12.4c0-4.2,1.3-7.6,4-10.1
		c2.7-2.5,6-3.8,9.9-3.8c4.4,0,7.8,1.3,10.4,3.8s3.8,5.9,3.8,10.1V130.2z M71.6,32c-6.2,0-11.9,1.1-17.2,3.4
		c-5.3,2.3-9.9,5.4-13.8,9.4c-3.9,4-7,8.6-9.3,14c-2.3,5.4-3.4,11-3.4,17.1s1.1,11.7,3.4,16.9c2.3,5.3,5.4,9.9,9.3,13.8
		c3.9,3.9,8.5,7,13.8,9.3c5.3,2.3,11,3.4,17.2,3.4c5.8,0,11.3-1.1,16.4-3.4c5.1-2.3,9.5-5.4,13.2-9.3c3.7-3.9,6.5-8.5,8.6-13.8
		c2.1-5.3,3.2-10.9,3.2-16.9s-1.1-11.7-3.2-17.1c-2.1-5.4-5-10-8.6-14c-3.7-4-8-7.1-13.2-9.4C83,33.1,77.5,32,71.6,32z"/>
	<path fill="#FFFFFF" d="M231.7,3.9c10.2,0,19.9,1.9,29.1,5.7c9.2,3.8,16.8,9.4,22.8,16.7c1.1,1.5,1.9,3,2.4,4.6
		c0.5,1.6,0.7,3.1,0.7,4.4c0,3.9-1.5,7.3-4.4,10.2c-2.9,2.9-6.3,4.4-10,4.4c-3.4,0-6.5-1.4-9.3-4.1c-4.2-4.2-9-7.6-14.4-10.1
		c-5.4-2.5-11-3.8-17.1-3.8c-6.2,0-11.9,1.1-17.2,3.4c-5.3,2.3-9.9,5.4-13.8,9.4c-3.9,4-7,8.6-9.3,14c-2.3,5.4-3.4,11-3.4,17.1
		s1.1,11.7,3.4,16.9c2.3,5.3,5.4,9.9,9.3,13.8c3.9,3.9,8.5,7,13.8,9.3c5.3,2.3,11,3.4,17.2,3.4c6,0,11.7-1.1,17.1-3.3
		c5.4-2.2,10-5.4,13.9-9.6c1.6-1.6,3.2-2.7,4.7-3.3c1.5-0.6,3.2-0.9,5-0.9c3.7,0,7.1,1.4,10.2,4.1c3.1,2.8,4.6,6.1,4.6,10
		c0,3.3-1.5,6.5-4.4,9.7c-6.7,6.8-14.4,12.1-23.3,15.7c-8.9,3.6-18.2,5.5-27.9,5.5c-9.9,0-19.2-1.9-27.9-5.6
		c-8.7-3.7-16.3-8.8-22.8-15.2s-11.6-14-15.3-22.7c-3.7-8.7-5.6-18-5.6-27.9c0-9.9,1.9-19.2,5.6-27.9c3.7-8.7,8.9-16.3,15.3-22.8
		c6.5-6.5,14.1-11.6,22.8-15.5C212.5,5.9,221.8,3.9,231.7,3.9z"/>
	<path fill="#FFFFFF" d="M318.2,7.1c8,0,12.7,4.1,14.1,12.2c4.2-4.7,9.4-8.4,15.6-11.2s13.1-4.1,20.7-4.1c8.8,0,16.7,1.6,23.9,4.7
		c7.1,3.2,13.2,7.5,18.3,13c5,5.5,8.9,12.1,11.6,19.6c2.7,7.5,4,15.7,4,24.5v64.6c0,4.4-1.3,7.8-3.8,10.2c-2.5,2.4-5.9,3.7-10.1,3.7
		c-4.1,0-7.4-1.2-10-3.7s-3.9-5.8-3.9-10.2V65.8c0-4.7-0.7-9.1-2.2-13.3c-1.5-4.1-3.5-7.8-6.2-10.8c-2.7-3.1-6-5.5-9.9-7.3
		c-3.9-1.8-8.3-2.7-13.2-2.7c-4.9,0-9.3,0.9-13.4,2.7c-4.1,1.8-7.6,4.2-10.5,7.2c-2.9,3-5.2,6.6-6.7,10.7c-1.5,4.1-2.3,8.7-2.3,13.5
		v64.6c0,4.4-1.3,7.8-3.8,10.2s-6,3.7-10.4,3.7c-3.9,0-7.2-1.2-9.9-3.7c-2.7-2.4-4-5.8-4-10.2V19.3c0-3.7,1.2-6.7,3.5-8.9
		C312.2,8.2,315,7.1,318.2,7.1z"/>
	<path fill="#FFFFFF" d="M517.3,3.9c9.7,0,19,1.9,27.7,5.6c8.7,3.7,16.3,8.7,22.8,15c6.5,6.3,11.7,13.6,15.5,21.9s5.7,17.2,5.7,26.4
		c0,4.7-1.2,8.3-3.6,10.7c-2.4,2.4-5.8,3.7-10.2,3.7h-98.9c0.8,4.6,2.5,8.8,5.1,12.7c2.6,3.9,5.8,7.3,9.6,10.1
		c3.8,2.8,8,5.1,12.5,6.7s9.2,2.4,13.9,2.4c6,0,11.5-1.1,16.6-3.2c5-2.1,9.5-5.1,13.4-9c1.6-1.5,3.4-2.6,5.4-3.5
		c1.9-0.9,3.8-1.3,5.6-1.3c3.7,0,6.9,1.4,9.4,4.1c2.5,2.8,3.8,6,3.8,9.7c0,2-0.2,3.8-0.7,5.6c-0.5,1.8-1.5,3.4-2.9,4.9
		c-6.3,7-13.8,12.2-22.4,15.6c-8.6,3.4-17.9,5.1-28,5.1c-9.9,0-19.2-1.9-27.9-5.6c-8.7-3.7-16.3-8.8-22.8-15.2s-11.6-14-15.3-22.7
		c-3.7-8.7-5.6-18-5.6-27.9c0-9.9,1.9-19.2,5.6-27.9c3.7-8.7,8.9-16.3,15.3-22.8c6.5-6.5,14.1-11.6,22.8-15.5
		C498.1,5.9,507.4,3.9,517.3,3.9z M517.3,32c-4.7,0-9.3,0.8-13.9,2.4c-4.6,1.6-8.6,3.9-12.3,6.8s-6.8,6.3-9.4,10.2
		c-2.6,3.9-4.4,8.1-5.4,12.7h81.9c-0.8-4.5-2.5-8.8-5.1-12.7c-2.6-3.9-5.8-7.3-9.5-10.2c-3.7-2.9-7.9-5.2-12.4-6.8
		C526.6,32.8,522,32,517.3,32z"/>
	<path fill="#FFFFFF" d="M645.5,58.5c6.2,2.4,11.4,4.9,15.7,7.3c4.3,2.4,7.9,5,10.8,7.8c3.7,3.7,6.4,8,8,12.8
		c1.6,4.8,2.4,10.7,2.4,17.7c0,5.2-1,10.2-2.9,15.1c-2,4.9-4.8,9.2-8.4,13c-3.7,3.8-8,6.9-13.2,9.3c-5.1,2.4-10.9,3.5-17.4,3.5
		c-5.7,0-11.2-0.9-16.7-2.8c-5.4-1.9-10-4.3-13.8-7.2c-2.3-1.8-4.2-3.8-5.7-6.1c-1.5-2.3-2.3-4.9-2.3-7.8c0-3.2,1.2-6.3,3.5-9.1
		c2.3-2.8,5.2-4.3,8.6-4.3c2.9,0,6,1,9.3,2.9c2.4,1.5,5,2.7,7.8,3.7c2.8,1,5.8,1.5,9.3,1.5c4.9,0,8.4-1.2,10.7-3.8
		c2.3-2.5,3.4-5.7,3.4-9.4c0-3.6-0.6-6.3-1.8-8.2c-1.2-1.9-2.7-3.5-4.5-4.7c-3.7-2.8-7.8-4.9-12.3-6.3c-4.5-1.5-8.8-3.4-13-5.8
		c-5.7-3.2-10.2-7.4-13.4-12.4s-4.9-11.5-4.9-19.5c0-5.8,1-11.2,2.9-16c1.9-4.8,4.7-8.9,8.2-12.3c3.5-3.4,7.6-6,12.3-7.9
		c4.7-1.9,9.9-2.8,15.6-2.8c5.7,0,11.3,1.1,16.8,3.2c5.5,2.1,9.7,5.3,12.7,9.5c1.9,2.8,2.9,6.3,2.9,10.5c0,3.4-1,6.4-3.1,8.9
		c-2,2.5-5.2,3.8-9.4,3.8c-1.6,0-3.4-0.4-5.2-1.1c-1.9-0.7-3.3-1.7-4.3-3.1c-2.8-3.6-6.7-5.4-11.9-5.4c-2.6,0-4.9,1-6.9,2.9
		c-2,1.9-3,4.8-3,8.5c0,3.4,0.8,6,2.3,7.9C636.2,54.2,639.8,56.3,645.5,58.5z"/>
	<path fill="#FFFFFF" d="M976.6,130.2c0,4.4-1.3,7.8-3.8,10.4c-2.5,2.5-6,3.8-10.4,3.8c-3.9,0-7.2-1.3-9.9-3.8c-2.7-2.5-4-6-4-10.4
		v-0.7c-2.3,2.3-4.9,4.5-7.9,6.7c-3,2.2-6.3,4.1-10,5.7c-3.6,1.6-7.5,2.9-11.6,3.9c-4.1,1-8.1,1.5-12.2,1.5c-10.4,0-20-1.9-28.8-5.6
		c-8.8-3.7-16.3-8.8-22.7-15.2c-6.3-6.4-11.3-14-14.9-22.7c-3.6-8.7-5.4-18-5.4-27.9c0-9.9,1.8-19.2,5.4-27.9
		c3.6-8.7,8.6-16.3,15-22.8c6.4-6.5,14-11.6,22.8-15.5c8.8-3.8,18.3-5.7,28.5-5.7c9.1,0,17.1,1.5,24.1,4.6c7,3.1,12.8,7.2,17.5,12.4
		c0-4.2,1.3-7.6,4-10.1c2.7-2.5,6-3.8,9.9-3.8c4.4,0,7.8,1.3,10.4,3.8c2.5,2.5,3.8,5.9,3.8,10.1V130.2z M906.9,32
		c-6.2,0-11.9,1.1-17.2,3.4c-5.3,2.3-9.9,5.4-13.8,9.4c-3.9,4-7,8.6-9.3,14c-2.3,5.4-3.4,11-3.4,17.1s1.1,11.7,3.4,16.9
		c2.3,5.3,5.4,9.9,9.3,13.8c3.9,3.9,8.5,7,13.8,9.3c5.3,2.3,11,3.4,17.2,3.4c5.8,0,11.3-1.1,16.4-3.4c5.1-2.3,9.5-5.4,13.2-9.3
		c3.7-3.9,6.5-8.5,8.6-13.8c2.1-5.3,3.2-10.9,3.2-16.9s-1.1-11.7-3.2-17.1c-2.1-5.4-5-10-8.6-14c-3.7-4-8-7.1-13.2-9.4
		C918.2,33.1,912.8,32,906.9,32z"/>
	<path fill="#FFFFFF" d="M1011.9,7.1c8,0,12.7,4.1,14.1,12.2c4.2-4.7,9.4-8.4,15.6-11.2c6.2-2.8,13.1-4.1,20.7-4.1
		c8.8,0,16.7,1.6,23.9,4.7c7.1,3.2,13.2,7.5,18.3,13c5,5.5,8.9,12.1,11.6,19.6c2.7,7.5,4,15.7,4,24.5v64.6c0,4.4-1.3,7.8-3.8,10.2
		c-2.5,2.4-5.9,3.7-10.1,3.7c-4.1,0-7.4-1.2-10-3.7s-3.9-5.8-3.9-10.2V65.8c0-4.7-0.7-9.1-2.2-13.3c-1.5-4.1-3.5-7.8-6.2-10.8
		c-2.7-3.1-6-5.5-9.9-7.3c-3.9-1.8-8.3-2.7-13.2-2.7c-4.9,0-9.3,0.9-13.4,2.7c-4.1,1.8-7.6,4.2-10.5,7.2c-2.9,3-5.2,6.6-6.7,10.7
		c-1.5,4.1-2.3,8.7-2.3,13.5v64.6c0,4.4-1.3,7.8-3.8,10.2s-6,3.7-10.4,3.7c-3.9,0-7.2-1.2-9.9-3.7c-2.7-2.4-4-5.8-4-10.2V19.3
		c0-3.7,1.2-6.7,3.5-8.9C1005.9,8.2,1008.7,7.1,1011.9,7.1z"/>
	<path fill="#FFFFFF" d="M841.6,186.9l-0.2,0.2c-3.9,3.9-10.3,3.9-14.1,0l-43.3-43.3c-3.9-3.9-3.9-10.3,0-14.1l0.2-0.2
		c3.9-3.9,10.3-3.9,14.1,0l43.3,43.3C845.5,176.7,845.5,183,841.6,186.9z"/>
	<g>
		<path fill="#FFFFFF" d="M723.8,14.1c8.9-5.1,18.2-8.3,28.1-9.6c9.9-1.3,19.2-0.3,28.1,3.1c1.7,0.7,3.2,1.6,4.4,2.8
			c1.2,1.2,2.2,2.3,2.8,3.4c1.9,3.4,2.4,7.1,1.3,11.1c-1.1,4-3.2,6.9-6.5,8.8c-3,1.7-6.3,2.1-10.1,1c-5.8-1.5-11.6-2.1-17.5-1.6
			c-5.9,0.5-11.5,2.3-16.7,5.3c-5.3,3.1-9.7,6.9-13.2,11.5c-3.4,4.6-5.8,9.6-7.2,15c-1.4,5.4-1.7,11-1,16.8
			c0.7,5.8,2.6,11.3,5.6,16.5c3,5.2,6.8,9.5,11.4,13c4.6,3.4,9.6,5.9,14.9,7.3c5.3,1.4,10.8,1.8,16.6,1.1c5.7-0.7,11.2-2.5,16.6-5.6
			c5.2-3,9.6-6.8,13.1-11.4c3.5-4.6,6-9.7,7.2-15.3c0.6-2.2,1.4-4,2.5-5.2c1.1-1.3,2.3-2.3,3.9-3.2c3.2-1.9,6.9-2.4,10.9-1.5
			c4.1,0.9,7.1,3,9,6.3c1.6,2.8,2,6.4,1.1,10.6c-2.4,9.2-6.5,17.7-12.3,25.2c-5.8,7.6-13,13.8-21.4,18.7c-8.6,5-17.6,8-27,9.1
			c-9.4,1.1-18.5,0.5-27.3-1.8c-8.8-2.3-17-6.3-24.6-12c-7.6-5.7-13.8-12.8-18.8-21.4c-5-8.6-8-17.6-9.1-27
			c-1.1-9.4-0.5-18.5,1.9-27.4c2.4-8.9,6.4-17.1,12-24.8C708.1,25.3,715.2,19,723.8,14.1z"/>
	</g>
</g>
</svg>
