<?xml version="1.0" encoding="utf-8"?>
<!-- Generator: Adobe Illustrator 21.0.0, SVG Export Plug-In . SVG Version: 6.00 Build 0)  -->
<svg version="1.1" id="Layer_1" xmlns="http://www.w3.org/2000/svg" xmlns:xlink="http://www.w3.org/1999/xlink" x="0px" y="0px"
	 viewBox="0 0 402 599" style="enable-background:new 0 0 402 599;" xml:space="preserve">
<style type="text/css">
	.st0{fill:#333333;}
	.st1{fill:#EAC6BB;}
	.st2{fill:#1A1A1A;}
	.st3{fill:#2C6FD1;}
	.st4{fill:none;stroke:#333333;stroke-width:2;stroke-miterlimit:10;}
	.st5{fill:#22FF5C;}
	.st6{fill:#7D9E11;}
	.st7{fill:#ED5564;}
	.st8{fill:#308CBA;}
	.st9{fill:#3B9DFF;}
	.st10{fill:none;}
</style>
<g id="Layer_2">
	<circle class="st0" cx="232.5" cy="40.5" r="3.5"/>
</g>
<rect x="53" y="499.5" transform="matrix(0.7986 -0.6018 0.6018 0.7986 -291.4327 133.9787)" class="st1" width="3" height="6"/>
<rect x="45" y="473" class="st1" width="9" height="20"/>
<rect x="51" y="490" class="st1" width="3" height="9"/>
<rect x="52" y="495" class="st1" width="4" height="6"/>
<path class="st1" d="M370,551c-1.4-6.8-3.2-16.8-4-29c-1.1-16.2,0.1-26.6,2-50c0.8-9.7,2.9-35.3,4-56c0.9-16.9,3.2-34,0.9-50.8
	c-2.3-16.8-12.5-28.7-17.8-44.3c-4.1-12.1-4.5-32.8-14.1-41.9c-0.8-0.7-3.6-3.3-8-4c-0.7-0.1-4.1-0.6-8,1c-4.3,1.7-14.6,16.8-17,23
	c-1.6,4.2-3.6,10.7-4,19c-1.6,35.8-3.1,71.6-4.7,107.4c-0.5,10.6-1.6,100.7-6.9,100.7c-74.1,0.1-148.3,0.6-222.4,0.9l52.7,72h271
	C380.3,576.2,370.4,557.2,370,551z M325.3,385.8c-0.9,6.2-0.4,12.5-0.8,18.7c-0.4,6.4-10.4,6.4-10,0c0.5-7.1,0.2-14.2,1.2-21.3
	c0.4-2.7,3.8-4.2,6.2-3.5C324.7,380.5,325.7,383.1,325.3,385.8z"/>
<path class="st1" d="M55,322c-2.2-1.2-4.9-2.9-8-5c-2.1-1.4-5.7-4-10-8c-2.5-2.3-5.7-5.4-9-10c-2.1-3-4.5-6.3-6-11
	c-0.6-1.9-4.9-15.1,2-23c2.9-3.3,6.6-4.4,12-6c5.8-1.7,11.5-1.9,14-2c1.7-0.1,3,0,4,0"/>
<g>
	<path class="st2" d="M283.5,532.8h-195c-9.7,0-18.4-3.9-24.7-10.3c-1.3-1.3-8-8.2-9.8-19.1c-0.4-2.3-0.5-4.2-0.5-5.7
		c0-151.7,0-303.3,0-455c0-19.3,15.7-35,35-35h195c19.3,0,35,15.7,35,35v455C318.5,517.1,302.8,532.8,283.5,532.8z"/>
</g>
<rect x="70.5" y="70.3" class="st3" width="231" height="400"/>
<circle class="st4" cx="186" cy="502" r="20"/>
<path class="st0" d="M207.5,43h-43c-1.9,0-3.5-1.6-3.5-3.5l0,0c0-1.9,1.6-3.5,3.5-3.5h43c1.9,0,3.5,1.6,3.5,3.5l0,0
	C211,41.4,209.4,43,207.5,43z"/>
<circle class="st0" cx="233.5" cy="39.5" r="3.5"/>
<image style="display:none;overflow:visible;opacity:0.91;enable-background:new    ;" width="1299" height="1351" xlink:href="F63C653F.jpeg"  transform="matrix(0.9476 0 0 0.9474 -449 -318)">
</image>
<path class="st1" d="M319,280c-1.4,1.8-3.3,4.4-5,8c-1.7,3.4-2.6,6.3-3.4,9c-0.7,2.3-1.5,5.2-2.5,11c-0.8,4.6-1.8,9.8-2.5,17
	c-0.2,2.2-0.9,9.8-0.8,20c0.1,7,0.1,10.4,0.8,15c0.8,4.8,1.9,8.2,4.2,15c2.2,6.5,8.3,12.4,8.6,19.5c0.3,6.4-3.4,14.3-5.2,20.5
	c-2.4,8-3.9,14.4-5.9,23c-2.3,10-5.2,22.5-6.7,39c-0.3,3.2-0.5,12.2-0.8,30c-0.4,20-0.3,23.1,1.7,25c6.7,6.6,26.4-9.9,31.1-14"/>
<path class="st1" d="M54,481c-2.8,3.1-4.6,9.3,0,23c-1.5-1.8-3.5-4.2-6-7c-9.6-11-23.4-22.6-28-37c-2.7-8.4-1.2-23,6-29
	c9-7.5,20.4-6.8,31-3c6.3,2.2,9.1,5.1,10,6c7.5,7.9,7.1,19.4,4,29c-1.1,3.3-2,6.2-4,9C62.6,478,57.5,477.2,54,481z"/>
<path class="st5" d="M29,473c1.3,4,2.7,8,4,12"/>
<rect x="151.5" y="186" class="st6" width="2" height="134"/>
<path class="st2" d="M45,487"/>
<path class="st1" d="M53.5,423c0-12.3,0-24.7,0-37c1.2-1.4,2.7-3.4,4.1-6c4-7.7,4.1-17.5,2.4-25.9c-2.2-11.1-9.3-17.8-20.8-18.1
	c-15.4-0.5-27.6,8.7-31.5,23.6C0.4,387,29.3,406.3,49.4,419"/>
<g>
	<g>
		<path class="st1" d="M327.9,384.6c-0.1-0.1-0.2-0.3-0.2-0.5c0.1,0.3,0,0.1,0-0.1c-0.1-0.3-0.2-0.6-0.2-0.9c-0.2-1-1.5-1.7-2.5-1.4
			c-1.1,0.4-1.6,1.4-1.4,2.5c0.2,0.8,0.5,1.6,0.9,2.4c0.5,0.9,1.9,1.3,2.7,0.7C328.2,386.8,328.5,385.6,327.9,384.6L327.9,384.6z"/>
	</g>
</g>
<g>
	<rect x="108" y="106" class="st1" width="153" height="164"/>
</g>
<circle class="st7" cx="168.5" cy="160.5" r="26.5"/>
<circle class="st7" cx="214" cy="193" r="11"/>
<circle class="st7" cx="188" cy="227" r="15"/>
<path class="st8" d="M332,327"/>
<path class="st9" d="M244.9,351.8h-47.8V304h0.2c26.3,0,47.6,21.3,47.6,47.6C244.9,351.7,244.9,351.8,244.9,351.8z M182.3,318.8
	c-1.2-0.1-2.5-0.2-3.7-0.2c-28.5,0-51.6,23.2-51.6,51.7s23.2,51.6,51.7,51.6c15.5,0,30.2-7,40-19l-36.4-36.3L182.3,318.8
	L182.3,318.8z M200.8,366.6l33.4,33.2l0.6-0.7c7.7-9,11.3-20.8,9.8-32.5H200.8z"/>
<g>
	<path class="st6" d="M182.3,318.8c-1.2-0.1-2.5-0.2-3.7-0.2c-28.5,0-51.6,23.2-51.6,51.7s23.2,51.6,51.7,51.6c15.5,0,30.2-7,40-19
		l-36.4-36.3L182.3,318.8L182.3,318.8z"/>
</g>
<line class="st10" x1="452" y1="599" x2="393.7" y2="599"/>
<line class="st10" x1="122.7" y1="599" x2="50" y2="599"/>
</svg>
